<svg class="svg-icon" style="width: 1em; height: 1em;vertical-align: middle;fill: currentColor;overflow: hidden;" viewBox="0 0 1024 1024" version="1.1" xmlns="http://www.w3.org/2000/svg"><path d="M512 384a128 128 0 0 0-128 128 128 128 0 0 0 128 128 128 128 0 0 0 128-128 128 128 0 0 0-128-128m0 341.333333a213.333333 213.333333 0 0 1-213.333333-213.333333 213.333333 213.333333 0 0 1 213.333333-213.333333 213.333333 213.333333 0 0 1 213.333333 213.333333 213.333333 213.333333 0 0 1-213.333333 213.333333m0-533.333333C298.666667 192 116.48 324.693333 42.666667 512c73.813333 187.306667 256 320 469.333333 320s395.52-132.693333 469.333333-320c-73.813333-187.306667-256-320-469.333333-320z" fill="" /></svg>